<?xml version="1.0" standalone="no"?>
<!DOCTYPE svg PUBLIC "-//W3C//DTD SVG 20010904//EN"
 "http://www.w3.org/TR/2001/REC-SVG-20010904/DTD/svg10.dtd">
<svg version="1.0" xmlns="http://www.w3.org/2000/svg"
 width="92.000000pt" height="92.000000pt" viewBox="0 0 92.000000 92.000000"
 preserveAspectRatio="xMidYMid meet">
<metadata>
Created by potrace 1.11, written by Peter Selinger 2001-2013
</metadata>
<g transform="translate(0.000000,92.000000) scale(0.100000,-0.100000)"
fill="#000000" stroke="none">
<path d="M0 460 l0 -460 460 0 460 0 0 460 0 460 -460 0 -460 0 0 -460z m290
175 c0 -23 -4 -24 -62 -27 l-63 -3 -3 -37 -3 -38 60 0 c58 0 61 -1 61 -25 0
-24 -3 -25 -60 -25 l-60 0 0 -60 0 -60 -30 0 -30 0 0 150 0 150 95 0 c94 0 95
0 95 -25z m192 15 c69 -20 92 -97 43 -146 l-25 -25 30 -59 30 -60 -35 0 c-33
0 -37 4 -62 55 -21 43 -32 55 -50 55 -21 0 -23 -4 -23 -55 0 -54 0 -55 -30
-55 l-30 0 0 150 0 150 58 0 c31 0 74 -5 94 -10z m304 -9 c17 -11 36 -33 42
-50 11 -31 11 -31 -24 -31 -18 0 -34 4 -34 9 0 18 -31 41 -55 41 -36 0 -55
-36 -55 -104 0 -66 17 -96 56 -96 23 0 54 23 54 41 0 5 14 9 30 9 21 0 30 -5
30 -16 0 -66 -106 -107 -180 -69 -59 31 -79 171 -33 233 40 54 112 68 169 33z"/>
<path d="M397 603 c-4 -3 -7 -24 -7 -45 l0 -39 43 3 c38 3 42 6 45 33 3 19 -2
33 -14 42 -19 14 -56 17 -67 6z"/>
</g>
</svg>
